<?xml version="1.0" encoding="UTF-8"?>
<svg width="22px" height="19px" viewBox="0 0 22 19" version="1.1" xmlns="http://www.w3.org/2000/svg" xmlns:xlink="http://www.w3.org/1999/xlink">
    <title>icon/FS Report</title>
    <g id="Page-1" stroke="none" stroke-width="1" fill="none" fill-rule="evenodd">
        <g id="SA-month-Extra-Fee" transform="translate(-1550.000000, -136.000000)" fill="#FF5F3B" fill-rule="nonzero">
            <g id="Group" transform="translate(1550.000000, 136.000000)">
                <path d="M14.4,0 L1.6,0 C0.72,0 0.008,0.72 0.008,1.6 L0,16 L3.2,12.8 L14.4,12.8 C15.28,12.8 16,12.08 16,11.2 L16,1.6 C16,0.72 15.28,0 14.4,0 Z M8.8,7.2 L7.2,7.2 L7.2,2.4 L8.8,2.4 L8.8,7.2 Z M8.8,10.4 L7.2,10.4 L7.2,8.8 L8.8,8.8 L8.8,10.4 Z" id="Shape"></path>
                <path d="M20.9752137,7.48747947 C20.9318165,7.39360428 20.8383527,7.33335417 20.7353968,7.33335417 L17.5986376,7.33335417 L20.6943571,2.40934455 C20.7459746,2.32721939 20.7491387,2.22321919 20.7025774,2.13815652 C20.6559851,2.0528126 20.5670193,2 20.4706707,2 L16.2353944,2 C16.1350752,2 16.0434726,2.05706261 15.9984934,2.14746904 L12.0279122,10.1474847 C11.9868725,10.2298911 11.9913705,10.3280163 12.0395448,10.4066727 C12.0879983,10.4853291 12.1729625,10.5333292 12.2648132,10.5333292 L14.9867707,10.5333292 L12.0207466,17.6298743 C11.9701837,17.7512183 12.0151939,17.8919998 12.1266184,17.9608124 C12.1694883,17.9872187 12.2171352,18 12.264534,18 C12.3405024,18 12.4154161,17.9671874 12.4673129,17.9053436 L20.9378964,7.77198002 C21.0043106,7.69254237 21.0186109,7.58160465 20.9752137,7.48747947 Z" id="Path" stroke="#FEF2E7" stroke-width="1.14285938"></path>
            </g>
        </g>
    </g>
</svg>