<?xml version="1.0" encoding="UTF-8"?>
<svg width="10px" height="15px" viewBox="0 0 10 15" version="1.1" xmlns="http://www.w3.org/2000/svg" xmlns:xlink="http://www.w3.org/1999/xlink">
    <title>icon/ Direct Discount</title>
    <g id="Page-1" stroke="none" stroke-width="1" fill="none" fill-rule="evenodd">
        <g id="SA-month-Extra-Fee" transform="translate(-1725.000000, -247.000000)" fill="#FFC716" fill-rule="nonzero">
            <g id="Path-Copy" transform="translate(1725.000000, 247.000000)">
                <path d="M11.8007212,7.35409108 L7.63715242,3.1905223 C7.38312268,2.93649257 6.97113755,2.93649257 6.71710781,3.1905223 C6.46302602,3.44460409 6.46302602,3.85648513 6.71710781,4.11056691 L9.77009665,7.16355576 L-1.34944238,7.16355576 C-1.70870632,7.16355576 -2,7.45484944 -2,7.81411338 C-2,8.17332528 -1.70870632,8.464671 -1.34944238,8.464671 L9.77009665,8.464671 L6.7172119,11.5176599 C6.46313011,11.7717416 6.46313011,12.1836227 6.7172119,12.4377045 C6.84420074,12.5646413 7.01074349,12.6282398 7.1772342,12.6282398 C7.34372491,12.6282398 7.51021561,12.5646413 7.63725651,12.4377045 L11.8007212,8.27413569 C12.054803,8.0200539 12.054803,7.60817286 11.8007212,7.35409108 Z" transform="translate(4.995641, 7.814120) rotate(-270.000000) translate(-4.995641, -7.814120) "></path>
            </g>
        </g>
    </g>
</svg>