<?xml version="1.0" encoding="UTF-8"?>
<svg width="8px" height="14px" viewBox="0 0 8 14" version="1.1" xmlns="http://www.w3.org/2000/svg" xmlns:xlink="http://www.w3.org/1999/xlink">
    <title>icon/ Flash Sale</title>
    <g id="Page-1" stroke="none" stroke-width="1" fill="none" fill-rule="evenodd">
        <g id="SA-month-Extra-Fee" transform="translate(-1419.000000, -247.000000)" fill="#FF5F3B" fill-rule="nonzero">
            <g id="i" transform="translate(1419.000000, 247.000000)">
                <path d="M7.95254795,4.81093151 C7.91421918,4.72863014 7.83167123,4.67580822 7.74073973,4.67580822 L4.97032877,4.67580822 L7.70449315,0.358876712 C7.75008219,0.286876712 7.75287671,0.19569863 7.71175342,0.121123288 C7.67060274,0.0463013699 7.5920274,0 7.50693151,0 L3.76630137,0 C3.67769863,0 3.59679452,0.0500273973 3.55706849,0.129287671 L0.0502191781,7.1429863 C0.0139726027,7.21523288 0.0179452055,7.30126027 0.0604931507,7.37021918 C0.103287671,7.43917808 0.178328767,7.48126027 0.259452055,7.48126027 L2.66350685,7.48126027 L0.043890411,13.7028767 C-0.000767123288,13.8092603 0.0389863014,13.9326849 0.13739726,13.9930137 C0.175260274,14.0161644 0.217342466,14.0273699 0.259205479,14.0273699 C0.32630137,14.0273699 0.392465753,13.9986027 0.43830137,13.9443836 L7.91958904,5.06035616 C7.97824658,4.99071233 7.99087671,4.89345205 7.95254795,4.81093151 Z" id="Path"></path>
            </g>
        </g>
    </g>
</svg>