<?xml version="1.0" encoding="UTF-8"?>
<svg width="21px" height="18px" viewBox="0 0 21 18" version="1.1" xmlns="http://www.w3.org/2000/svg" xmlns:xlink="http://www.w3.org/1999/xlink">
    <title>icon/FS Setting</title>
    <g id="Page-1" stroke="none" stroke-width="1" fill="none" fill-rule="evenodd">
        <g id="SA-month-Extra-Fee" transform="translate(-1680.000000, -136.000000)" fill="#FF5F3B" fill-rule="nonzero">
            <g id="Group-2" transform="translate(1680.000000, 136.000000)">
                <g id="Shape-2">
                    <path d="M15.122,6.26266667 L13.8686667,6.10333333 C13.7653333,5.78533333 13.638,5.47866667 13.4893333,5.18733333 L14.2633333,4.19066667 C14.5766667,3.78733333 14.54,3.218 14.182,2.87133333 L13.132,1.82133333 C12.782,1.46 12.2126667,1.424 11.8086667,1.73666667 L10.8133333,2.51066667 C10.522,2.362 10.2153333,2.23466667 9.89666667,2.13133333 L9.73733333,0.88 C9.67733333,0.378 9.25133333,0 8.74666667,0 L7.25333333,0 C6.74866667,0 6.32266667,0.378 6.26266667,0.878 L6.10333333,2.13133333 C5.78466667,2.23466667 5.478,2.36133333 5.18666667,2.51066667 L4.19066667,1.73666667 C3.788,1.424 3.21866667,1.46 2.87133333,1.818 L1.82133333,2.86733333 C1.46,3.218 1.42333333,3.78733333 1.73666667,4.19133333 L2.51066667,5.18733333 C2.36133333,5.47866667 2.23466667,5.78533333 2.13133333,6.10333333 L0.88,6.26266667 C0.378,6.32266667 5.77315973e-14,6.74866667 5.77315973e-14,7.25333333 L5.77315973e-14,8.74666667 C5.77315973e-14,9.25133333 0.378,9.67733333 0.878,9.73733333 L2.13133333,9.89666667 C2.23466667,10.2146667 2.362,10.5213333 2.51066667,10.8126667 L1.73666667,11.8093333 C1.42333333,12.2126667 1.46,12.782 1.818,13.1286667 L2.868,14.1786667 C3.21866667,14.5393333 3.78733333,14.5753333 4.19133333,14.2626667 L5.18733333,13.4886667 C5.47866667,13.638 5.78533333,13.7653333 6.10333333,13.868 L6.26266667,15.1186667 C6.32266667,15.622 6.74866667,16 7.25333333,16 L8.74666667,16 C9.25133333,16 9.67733333,15.622 9.73733333,15.122 L9.89666667,13.8686667 C10.2146667,13.7653333 10.5213333,13.638 10.8126667,13.4893333 L11.8093333,14.2633333 C12.2126667,14.5766667 12.782,14.54 13.1286667,14.182 L14.1786667,13.132 C14.54,12.7813333 14.5766667,12.2126667 14.2633333,11.8086667 L13.4893333,10.8126667 C13.6386667,10.5213333 13.766,10.2146667 13.8686667,9.89666667 L15.1193333,9.73733333 C15.6213333,9.67733333 15.9993342,9.25133333 15.9993342,8.74666667 L15.9993342,7.25333333 C16,6.74866667 15.622,6.32266667 15.122,6.26266667 Z M8,11.3333333 C6.162,11.3333333 4.66666667,9.838 4.66666667,8 C4.66666667,6.162 6.162,4.66666667 8,4.66666667 C9.838,4.66666667 11.3333333,6.162 11.3333333,8 C11.3333333,9.838 9.838,11.3333333 8,11.3333333 Z" id="Shape"></path>
                </g>
                <path d="M19.9752137,6.48747947 C19.9318165,6.39360428 19.8383527,6.33335417 19.7353968,6.33335417 L16.5986376,6.33335417 L19.6943571,1.40934455 C19.7459746,1.32721939 19.7491387,1.22321919 19.7025774,1.13815652 C19.6559851,1.0528126 19.5670193,1 19.4706707,1 L15.2353944,1 C15.1350752,1 15.0434726,1.05706261 14.9984934,1.14746904 L11.0279122,9.14748466 C10.9868725,9.22989107 10.9913705,9.32801627 11.0395448,9.40667267 C11.0879983,9.48532907 11.1729625,9.53332917 11.2648132,9.53332917 L13.9867707,9.53332917 L11.0207466,16.6298743 C10.9701837,16.7512183 11.0151939,16.8919998 11.1266184,16.9608124 C11.1694883,16.9872187 11.2171352,17 11.264534,17 C11.3405024,17 11.4154161,16.9671874 11.4673129,16.9053436 L19.9378964,6.77198002 C20.0043106,6.69254237 20.0186109,6.58160465 19.9752137,6.48747947 Z" id="Path" stroke="#FEF2E7" stroke-width="1.14285938"></path>
            </g>
        </g>
    </g>
</svg>