<svg id="SvgjsSvg1001" width="288" height="288" xmlns="http://www.w3.org/2000/svg" version="1.1" xmlns:xlink="http://www.w3.org/1999/xlink" xmlns:svgjs="http://svgjs.com/svgjs"><defs id="SvgjsDefs1002"></defs><g id="SvgjsG1008" transform="matrix(1,0,0,1,0,0)"><svg xmlns="http://www.w3.org/2000/svg" width="288" height="288" fill="none" viewBox="0 0 24 24"><g clip-path="url(#clip0_2784_1249)" fill="#2d83df" class="color000 svgShape"><path fill="#2d83df" fill-rule="evenodd" d="M2.57152 7.25C2.57152 4.91286 4.50043 3 6.85722 3C9.21402 3 11.1429 4.91286 11.1429 7.25C11.1429 9.58714 9.21402 11.5 6.85722 11.5C4.50043 11.5 2.57152 9.58714 2.57152 7.25ZM9.42864 7.25C9.42864 5.8316 8.28753 4.7 6.85722 4.7C5.42691 4.7 4.2858 5.8316 4.2858 7.25C4.2858 8.66839 5.42691 9.79999 6.85722 9.79999C8.28753 9.79999 9.42864 8.66839 9.42864 7.25ZM12.8571 7.25C12.8571 4.91286 14.786 3 17.1428 3C19.4996 3 21.4285 4.91286 21.4285 7.25C21.4285 9.58714 19.4996 11.5 17.1428 11.5C14.786 11.5 12.8571 9.58714 12.8571 7.25ZM19.7142 7.25C19.7142 5.8316 18.5731 4.7 17.1428 4.7C15.7125 4.7 14.5714 5.8316 14.5714 7.25C14.5714 8.66839 15.7125 9.79999 17.1428 9.79999C18.5731 9.79999 19.7142 8.66839 19.7142 7.25ZM4.2857 13.2001C1.92625 13.2001 0 15.1103 0 17.4501V19.1501C2.27059e-05 19.3755 0.0903356 19.5917 0.251076 19.7511C0.411816 19.9105 0.629819 20.0001 0.85714 20.0001H12.8571C13.0844 20.0001 13.3024 19.9105 13.4632 19.7511C13.6239 19.5917 13.7142 19.3755 13.7142 19.1501V17.4501C13.7142 15.1103 11.788 13.2001 9.42854 13.2001H4.2857ZM4.2857 14.9001H9.42854C10.8679 14.9001 12 16.0227 12 17.4501V18.3001H1.71428V17.4501C1.71428 16.0227 2.8463 14.9001 4.2857 14.9001ZM14.4995 14.0501C14.4995 13.5807 14.8833 13.2001 15.3567 13.2001H19.7144C22.0738 13.2001 24.0001 15.1103 24.0001 17.4501V19.1501C24 19.6195 23.6163 20 23.1429 20.0001H16.2858C16.0585 20.0001 15.8404 19.9105 15.6797 19.7511C15.519 19.5917 15.4287 19.3755 15.4287 19.1501C15.4287 18.9247 15.519 18.7085 15.6797 18.5491C15.8404 18.3897 16.0585 18.3001 16.2858 18.3001H22.2858V17.4501C22.2858 16.0227 21.1537 14.9001 19.7144 14.9001H15.3567C14.8833 14.9001 14.4995 14.5195 14.4995 14.0501Z" clip-rule="evenodd" class="color000 svgShape"></path></g><defs><clipPath id="clip0_2784_1249"><rect width="24" height="24" fill="#69acf3" class="colorfff svgShape"></rect></clipPath></defs></svg></g></svg>